<?xml version="1.0" encoding="UTF-8"?>
<svg id="Capa_1" data-name="Capa 1" xmlns="http://www.w3.org/2000/svg" xmlns:xlink="http://www.w3.org/1999/xlink" viewBox="0 0 47.57 47.57">
  <defs>
    <style>
      .cls-1 {
        fill: url(#Degradado_sin_nombre_3);
      }

      .cls-1, .cls-2, .cls-3 {
        stroke-width: 0px;
      }

      .cls-2 {
        fill: url(#Degradado_sin_nombre_3-2);
      }

      .cls-3 {
        fill: url(#Degradado_sin_nombre_3-3);
      }
    </style>
    <linearGradient id="Degradado_sin_nombre_3" data-name="Degradado sin nombre 3" x1="12.89" y1="-12.21" x2="57.61" y2="32.52" gradientUnits="userSpaceOnUse">
      <stop offset="0" stop-color="#ffe185"/>
      <stop offset=".21" stop-color="#ffbb36"/>
      <stop offset=".38" stop-color="#ff5176"/>
      <stop offset=".52" stop-color="#f63395"/>
      <stop offset=".74" stop-color="#a436d2"/>
      <stop offset="1" stop-color="#5f4eed"/>
    </linearGradient>
    <linearGradient id="Degradado_sin_nombre_3-2" data-name="Degradado sin nombre 3" x1=".44" y1=".24" x2="45.16" y2="44.97" xlink:href="#Degradado_sin_nombre_3"/>
    <linearGradient id="Degradado_sin_nombre_3-3" data-name="Degradado sin nombre 3" x1=".34" y1=".34" x2="45.06" y2="45.06" xlink:href="#Degradado_sin_nombre_3"/>
  </defs>
  <path class="cls-1" d="M36.38,8.49c-1.54,0-2.79,1.25-2.79,2.79s1.25,2.79,2.79,2.79,2.79-1.25,2.79-2.79-1.25-2.79-2.79-2.79Z"/>
  <path class="cls-2" d="M23.98,12.07c-6.46,0-11.71,5.25-11.71,11.71s5.26,11.71,11.71,11.71,11.71-5.26,11.71-11.71-5.25-11.71-11.71-11.71ZM23.98,31.29c-4.14,0-7.5-3.37-7.5-7.5s3.37-7.5,7.5-7.5,7.5,3.37,7.5,7.5-3.37,7.5-7.5,7.5Z"/>
  <path class="cls-3" d="M33.28,47.57H14.29c-7.88,0-14.29-6.41-14.29-14.29V14.29C0,6.41,6.41,0,14.29,0h18.99c7.88,0,14.29,6.41,14.29,14.29v18.99c0,7.88-6.41,14.29-14.29,14.29ZM14.29,4.48c-5.41,0-9.81,4.4-9.81,9.81v18.99c0,5.41,4.4,9.81,9.81,9.81h18.99c5.41,0,9.81-4.4,9.81-9.81V14.29c0-5.41-4.4-9.81-9.81-9.81H14.29Z"/>
</svg>