<?xml version="1.0" encoding="UTF-8"?>
<svg id="Capa_1" data-name="Capa 1" xmlns="http://www.w3.org/2000/svg" viewBox="0 0 486.5 486.5">
  <defs>
    <style>
      .cls-1 {
        fill: #000;
        stroke-width: 0px;
      }
    </style>
  </defs>
  <path class="cls-1" d="M243.25,0C108.91,0,0,108.91,0,243.25s108.91,243.25,243.25,243.25,243.25-108.91,243.25-243.25S377.59,0,243.25,0ZM134.48,133.75h217.38c3,0,5.88.43,8.64,1.16-.38.35-.78.65-1.12,1.04l-97.16,110.24c-4.89,5.55-11.66,8.6-19.05,8.6s-14.17-3.06-19.06-8.6l-98.11-111.32c2.71-.71,5.54-1.12,8.48-1.12ZM385.52,293.69c0,32.62-26.44,59.06-59.06,59.06h-166.42c-32.62,0-59.06-26.44-59.06-59.06v-126.36c0-4.69.97-9.15,2.71-13.21l98.35,111.6c10.42,11.83,25.44,18.61,41.21,18.61,15.77,0,30.78-6.78,41.2-18.61l97.16-110.24c.43-.49.76-1.02,1.11-1.55,1.79,4.1,2.79,8.63,2.79,13.39v126.36Z"/>
</svg>