<?xml version="1.0" encoding="UTF-8"?>
<svg id="Capa_1" data-name="Capa 1" xmlns="http://www.w3.org/2000/svg" viewBox="0 0 350.28 492.26">
  <defs>
    <style>
      .cls-1 {
        fill: #000;
        stroke-width: 0px;
      }
    </style>
  </defs>
  <path class="cls-1" d="M270.61,0H79.69C35.75,0,0,35.75,0,79.69v332.89c0,43.94,35.75,79.68,79.69,79.68h190.92c43.94,0,79.68-35.75,79.68-79.68V79.69c0-43.94-35.74-79.69-79.68-79.69ZM51.67,79.69c0-15.45,12.57-28.01,28.02-28.01h190.92c15.45,0,28.01,12.56,28.01,28.01v332.89c0,15.45-12.56,28.01-28.01,28.01H79.69c-15.45,0-28.02-12.56-28.02-28.01V79.69Z"/>
  <path class="cls-1" d="M198.61,412.94h-46.94c-14.27,0-25.84-11.57-25.84-25.84h0c0-14.27,11.57-25.84,25.84-25.84h46.94c14.27,0,25.84,11.57,25.84,25.84h0c0,14.27-11.57,25.84-25.84,25.84Z"/>
</svg>