<?xml version="1.0" encoding="UTF-8"?>
<svg id="Capa_1" data-name="Capa 1" xmlns="http://www.w3.org/2000/svg" viewBox="0 0 396.52 483.5">
  <defs>
    <style>
      .cls-1 {
        fill: #000;
        stroke-width: 0px;
      }
    </style>
  </defs>
  <path class="cls-1" d="M198.27,0C88.94,0,0,88.94,0,198.26c0,72.96,79.94,182.48,147,261.51,12.79,15.08,31.48,23.73,51.27,23.73s38.47-8.65,51.27-23.73c67.06-79.04,146.98-188.57,146.98-261.51C396.52,88.94,307.59,0,198.27,0ZM208.47,424.93c-3.47,4.1-7.88,4.71-10.21,4.71s-6.74-.61-10.21-4.71C104.02,325.89,53.85,241.16,53.85,198.26c0-79.63,64.79-144.4,144.42-144.4s144.41,64.78,144.41,144.4c0,42.88-50.18,127.62-134.2,226.67Z"/>
  <circle class="cls-1" cx="198.26" cy="190.04" r="40.96"/>
</svg>