<?xml version="1.0" encoding="UTF-8"?>
<svg id="Capa_1" data-name="Capa 1" xmlns="http://www.w3.org/2000/svg" xmlns:xlink="http://www.w3.org/1999/xlink" viewBox="0 0 500 500">
  <defs>
    <style>
      .cls-1 {
        fill: url(#linear-gradient);
      }

      .cls-1, .cls-2, .cls-3 {
        fill-rule: evenodd;
        stroke-width: 0px;
      }

      .cls-2 {
        fill: #ff1753;
        opacity: .8;
      }

      .cls-3 {
        fill: #00c9d0;
      }
    </style>
    <linearGradient id="linear-gradient" x1="56.4" y1="254.36" x2="435.61" y2="254.36" gradientUnits="userSpaceOnUse">
      <stop offset="0" stop-color="#23004a"/>
      <stop offset=".96" stop-color="#010003"/>
      <stop offset="1" stop-color="#000"/>
    </linearGradient>
  </defs>
  <path class="cls-2" d="M348.59,187.52c31.04,22.18,69.07,35.23,110.15,35.23v-79c-7.77,0-15.53-.81-23.13-2.42v62.18c-41.07,0-79.1-13.05-110.15-35.23v161.21c0,80.65-65.41,146.02-146.09,146.02-30.1,0-58.09-9.1-81.33-24.7,26.53,27.11,63.52,43.93,104.46,43.93,80.69,0,146.1-65.37,146.1-146.02v-161.21h0ZM377.13,107.82c-15.86-17.32-26.28-39.71-28.53-64.46v-10.16h-21.92c5.52,31.46,24.34,58.33,50.46,74.62h0ZM149.07,388.94c-8.86-11.61-13.65-25.83-13.63-40.44,0-36.88,29.92-66.79,66.83-66.79,6.88,0,13.72,1.05,20.27,3.13v-80.77c-7.66-1.05-15.4-1.49-23.12-1.33v62.86c-6.56-2.08-13.4-3.13-20.28-3.13-36.91,0-66.83,29.91-66.83,66.79,0,26.08,14.95,48.67,36.76,59.67Z"/>
  <path class="cls-1" d="M325.46,168.29c31.05,22.18,69.07,35.23,110.15,35.23v-62.18c-22.93-4.88-43.22-16.86-58.48-33.51-26.12-16.29-44.94-43.17-50.46-74.62h-57.58v315.53c-.13,36.78-30,66.56-66.83,66.56-21.7,0-40.99-10.34-53.2-26.35-21.81-11-36.76-33.59-36.76-59.67,0-36.89,29.91-66.79,66.83-66.79,7.07,0,13.89,1.1,20.28,3.13v-62.86c-79.27,1.64-143.02,66.37-143.02,145.99,0,39.74,15.88,75.77,41.64,102.09,23.25,15.6,51.23,24.7,81.33,24.7,80.68,0,146.09-65.37,146.09-146.02v-161.21Z"/>
  <path class="cls-3" d="M435.61,141.33v-16.82c-20.68.03-40.94-5.75-58.48-16.7,15.53,16.99,35.97,28.71,58.48,33.51ZM326.67,33.2c-.53-3-.93-6.03-1.21-9.07v-10.16h-79.5v315.53c-.13,36.78-29.99,66.56-66.83,66.56-10.81,0-21.02-2.56-30.07-7.12,12.21,16.02,31.49,26.35,53.2,26.35,36.83,0,66.7-29.78,66.83-66.56V33.2h57.58ZM199.42,202.75v-17.9c-6.64-.91-13.34-1.36-20.04-1.36-80.69,0-146.1,65.37-146.1,146.01,0,50.56,25.71,95.12,64.77,121.32-25.76-26.32-41.64-62.35-41.64-102.09,0-79.61,63.75-144.35,143.02-145.98h0Z"/>
</svg>