<?xml version="1.0" encoding="UTF-8"?>
<svg id="Capa_1" data-name="Capa 1" xmlns="http://www.w3.org/2000/svg" xmlns:xlink="http://www.w3.org/1999/xlink" viewBox="0 0 483.58 484.76">
  <defs>
    <style>
      .cls-1 {
        fill: url(#Degradado_sin_nombre_8);
      }

      .cls-1, .cls-2 {
        stroke-width: 0px;
      }

      .cls-2 {
        fill: url(#Degradado_sin_nombre_8-2);
        fill-rule: evenodd;
      }
    </style>
    <linearGradient id="Degradado_sin_nombre_8" data-name="Degradado sin nombre 8" x1="399.19" y1="469.99" x2="50.8" y2="121.6" gradientUnits="userSpaceOnUse">
      <stop offset="0" stop-color="#00fb73"/>
      <stop offset="1" stop-color="#00b25b"/>
    </linearGradient>
    <linearGradient id="Degradado_sin_nombre_8-2" data-name="Degradado sin nombre 8" x1="426.36" y1="442.82" x2="77.97" y2="94.43" xlink:href="#Degradado_sin_nombre_8"/>
  </defs>
  <path class="cls-1" d="M0,484.76l34.76-129.67c-19.68-35.5-30.03-75.28-30.03-115.66C4.72,107.41,112.13,0,244.15,0s239.43,107.41,239.43,239.43-107.41,239.43-239.43,239.43c-39.63,0-78.77-10.01-113.81-29.01L0,484.76ZM136.82,401.25l8.21,4.9c30.13,17.95,64.41,27.45,99.12,27.45,107.06,0,194.17-87.1,194.17-194.17S351.21,45.26,244.15,45.26,49.98,132.36,49.98,239.43c0,35.35,9.82,70.16,28.4,100.67l5.03,8.27-19.4,72.4,72.81-19.51Z"/>
  <path class="cls-2" d="M333.21,272.73c-9.86-5.9-22.68-12.47-34.29-7.73-8.91,3.64-14.6,17.59-20.37,24.7-2.96,3.66-6.49,4.23-11.04,2.4-33.44-13.32-59.06-35.64-77.5-66.39-3.12-4.78-2.56-8.55,1.2-12.98,5.57-6.56,12.57-14.01,14.08-22.86,1.51-8.84-2.64-19.18-6.3-27.05-4.67-10.06-9.89-24.41-19.97-30.11-9.27-5.23-21.47-2.3-29.72,4.42-14.25,11.6-21.12,29.78-20.92,47.8.06,5.12.69,10.23,1.88,15.17,2.88,11.89,8.37,22.98,14.55,33.54,4.66,7.96,9.73,15.68,15.19,23.1,17.88,24.29,40.13,45.4,65.89,61.18,12.87,7.88,26.74,14.8,41.09,19.54,16.1,5.32,30.44,10.86,47.83,7.55,18.2-3.45,36.15-14.72,43.38-32.26,2.14-5.19,3.2-10.98,2.01-16.46-2.47-11.34-17.83-18.08-27-23.57Z"/>
</svg>